<?xml version="1.0"?>
<svg xmlns="http://www.w3.org/2000/svg" xmlns:xlink="http://www.w3.org/1999/xlink" xmlns:svgjs="http://svgjs.com/svgjs" version="1.1" width="512" height="512" x="0" y="0" viewBox="0 0 128 128" style="enable-background:new 0 0 512 512" xml:space="preserve"><g transform="matrix(0.39999999999999997,0,0,0.39999999999999997,38.07073745727539,37.67845344543457)"><path xmlns="http://www.w3.org/2000/svg" d="m107.7 63.5c.4-24.7-19.4-44.5-43.6-44.9-26.1-.4-45.2 20.9-44.9 44.9.4 24.2 20.2 43.6 44.3 43.5 24.1.1 43.9-19.2 44.2-43.5zm-3.5 0c-.1 6.2-1.6 12.5-4.6 18.2.4-20.3-21.9-46.6-44.9-53.5.5-1.7.4-3.5-.4-5.1 3.3-.8 6.6-1.1 9.9-1 21.5.4 40.3 17.8 40 41.4zm-72-10.6c8-4 16.4-11.5 21.3-21.3 28.2 8.1 51.8 46 39.2 59.7-14.9 14.9-52.9-11.6-60.5-38.4zm17.4-28.3c.5-.2 1.1-.2 1.6.3.4.4.5 1.7-.3 4-3 7.8-13.5 18.3-21.4 21.4-2.4.9-4.7 1.2-4.3-1.3 4.1-11.3 13.2-20 24.4-24.4zm-26.8 38.9c-.1-3.3.3-6.6 1-9.9 1.6.9 3.3.8 5.1.4 6.5 22.2 32.8 45.4 53.6 44.9-6 3.1-12.5 4.6-18.9 4.6-22.4 0-40.4-17.6-40.8-40z" fill="#fffcfc" data-original="#000000" style=""/></g></svg>
