<?xml version="1.0"?>
<svg xmlns="http://www.w3.org/2000/svg" xmlns:xlink="http://www.w3.org/1999/xlink" xmlns:svgjs="http://svgjs.com/svgjs" version="1.1" width="512" height="512" x="0" y="0" viewBox="0 0 512 512" style="enable-background:new 0 0 512 512" xml:space="preserve" class=""><g transform="matrix(0.4,-1.959434878635765e-16,1.959434878635765e-16,0.4,153.59999999999997,153.60000686645515)">
<g xmlns="http://www.w3.org/2000/svg">
	<g>
		<path d="M433.121,85.076C385.56,61.296,322.657,48.199,256,48.199S126.44,61.296,78.879,85.076    C28.013,110.509,0,145.534,0,183.699v144.602c0,38.165,28.013,73.19,78.879,98.623c47.561,23.78,110.464,36.877,177.121,36.877    s129.56-13.097,177.121-36.877C483.987,401.491,512,366.466,512,328.301V183.699C512,145.534,483.987,110.509,433.121,85.076z     M482,328.301c0,25.829-22.706,51.995-62.296,71.79c-43.476,21.738-101.614,33.71-163.704,33.71s-120.228-11.972-163.705-33.71    C52.706,380.296,30,354.13,30,328.301v-79.85c12.595,12.499,28.979,23.922,48.879,33.872    c47.561,23.78,110.464,36.876,177.121,36.876s129.56-13.097,177.121-36.876c19.899-9.95,36.283-21.373,48.879-33.873V328.301z     M419.705,255.49C376.228,277.228,318.091,289.199,256,289.199c-62.09,0-120.229-11.972-163.705-33.709    C52.706,235.695,30,209.528,30,183.699c0-25.829,22.706-51.995,62.295-71.79C135.772,90.171,193.91,78.199,256,78.199    s120.228,11.972,163.704,33.71C459.294,131.704,482,157.87,482,183.699C482,209.528,459.294,235.695,419.705,255.49z" fill="#fffefe" data-original="#000000" style="" class=""/>
	</g>
</g>
<g xmlns="http://www.w3.org/2000/svg">
</g>
<g xmlns="http://www.w3.org/2000/svg">
</g>
<g xmlns="http://www.w3.org/2000/svg">
</g>
<g xmlns="http://www.w3.org/2000/svg">
</g>
<g xmlns="http://www.w3.org/2000/svg">
</g>
<g xmlns="http://www.w3.org/2000/svg">
</g>
<g xmlns="http://www.w3.org/2000/svg">
</g>
<g xmlns="http://www.w3.org/2000/svg">
</g>
<g xmlns="http://www.w3.org/2000/svg">
</g>
<g xmlns="http://www.w3.org/2000/svg">
</g>
<g xmlns="http://www.w3.org/2000/svg">
</g>
<g xmlns="http://www.w3.org/2000/svg">
</g>
<g xmlns="http://www.w3.org/2000/svg">
</g>
<g xmlns="http://www.w3.org/2000/svg">
</g>
<g xmlns="http://www.w3.org/2000/svg">
</g>
</g></svg>
