<?xml version="1.0"?>
<svg xmlns="http://www.w3.org/2000/svg" xmlns:xlink="http://www.w3.org/1999/xlink" xmlns:svgjs="http://svgjs.com/svgjs" version="1.1" width="512" height="512" x="0" y="0" viewBox="0 0 512 512" style="enable-background:new 0 0 512 512" xml:space="preserve"><g transform="matrix(0.4,0,0,0.4,153.5999954223633,153.59999084472656)">
<g xmlns="http://www.w3.org/2000/svg">
	<g>
		<path d="M437.019,74.981C388.667,26.628,324.379,0,256,0S123.333,26.628,74.981,74.981C26.629,123.334,0,187.621,0,256    s26.628,132.667,74.981,181.019C123.334,485.371,187.621,512,256,512s132.667-26.628,181.019-74.981S512,324.379,512,256    S485.372,123.333,437.019,74.981z M209.57,33.063c15.11-3.115,30.646-4.725,46.431-4.725    c60.809,0.001,117.98,23.682,160.98,66.681c9.027,9.027,17.19,18.685,24.474,28.864c-20.155-12.287-41.274-21.662-63.279-28.023    c-36.16-10.453-75.2-12.627-113.363-6.367c-0.113,0.018-0.225,0.039-0.337,0.057c-1.102,0.182-2.205,0.369-3.307,0.566    c-0.545,0.097-1.09,0.201-1.635,0.302c-0.605,0.112-1.212,0.219-1.816,0.335c-0.046,0.009-0.091,0.02-0.136,0.029    c-0.143,0.028-0.286,0.052-0.43,0.08c-21.335,4.15-42.292-8.432-48.728-29.264C205.476,52.057,205.939,42.067,209.57,33.063z     M104.574,124.015c6.84-23.429,16.597-43.146,24.938-57.382c15.296-10.263,31.703-18.565,48.904-24.784    c-0.929,9.315-0.001,18.853,2.868,28.137c5.802,18.778,18.695,33.519,34.94,42.014c-13.269,12.471-22.479,29.192-25.454,47.942    c-6.022,37.955,14.441,75.039,49.76,90.183l7.694,3.299c-7.278,6.068-13.563,13.299-18.503,21.443    c-24.814,40.909-77.503,45.835-78.345,45.908c-1.722,0.136-3.339,0.59-4.821,1.274c-2.287-6.024-5.381-11.814-9.297-17.206    C96.801,249.144,85.804,188.304,104.574,124.015z M28.339,256c0-52.15,17.431-101.614,49.512-141.769    c-0.074,0.246-0.152,0.486-0.225,0.733c-9.524,32.105-12.429,64.188-8.636,95.356c4.74,38.956,19.976,76.376,45.283,111.219    c12.924,17.794,11.438,42.637-3.535,59.073c-9.008,9.888-21.241,15.299-34.298,15.397C45.252,356.174,28.339,307.387,28.339,256z     M98.915,420.783c12.424-3.972,23.793-11.129,32.822-21.041c12.967-14.233,19.592-32.424,19.676-50.659    c0.714,0.053,1.438,0.071,2.174,0.014c2.756-0.212,67.854-5.804,100.421-59.496c6.948-11.455,17.306-19.768,29.177-24.272    c0.948-0.23,1.87-0.554,2.75-0.971c11.711-3.792,24.707-3.959,37.275,0.136c17.592,5.732,31.341,18.989,37.721,36.374    c5.993,16.332,4.601,34.075-3.739,49.125c-27.678,45.693-80.357,100.724-177.854,120.498    C149.651,459.902,122.31,443.112,98.915,420.783z M416.981,416.981c-43,42.999-100.171,66.68-160.981,66.68    c-5.78,0-11.528-0.217-17.233-0.641c29.861-11.313,56.751-26.689,80.458-46.068c8.505-6.952,16.259-14.169,23.342-21.493    c0.643-0.664,1.284-1.328,1.916-1.993c0.229-0.241,0.457-0.483,0.684-0.725c14.334-15.191,25.765-30.75,34.815-45.434    c0.515-0.835,1.009-1.678,1.494-2.525c7.393-12.246,13.119-23.761,17.48-33.735c9.135-20.894,32.411-31.315,54.135-24.235    c8.411,2.741,15.696,7.89,21.046,14.694C463.47,357.196,444.061,389.9,416.981,416.981z M461.892,279.804    c-26.233-8.548-53.831-1.543-72.589,16.4c-0.516-1.717-1.081-3.426-1.704-5.123c-9.4-25.615-29.661-45.15-55.588-53.597    c-16.623-5.416-34.632-5.752-51.391-1.077l-28.896-12.39c-23.352-10.013-36.88-34.531-32.899-59.625    c3.634-22.908,21.324-41.245,44.049-45.7c1.882-0.363,3.787-0.711,5.722-1.037c0.012-0.002,0.024-0.004,0.036-0.006    c6.136-1.033,12.531-1.871,19.144-2.458v-0.012c52.585-4.675,119.399,6.859,183.786,67.278    c7.95,23.369,12.099,48.136,12.099,73.544c0,11.313-0.822,22.499-2.434,33.492C475.367,285.361,468.866,282.077,461.892,279.804z" fill="#ffffff" data-original="#000000" style=""/>
	</g>
</g>
<g xmlns="http://www.w3.org/2000/svg">
</g>
<g xmlns="http://www.w3.org/2000/svg">
</g>
<g xmlns="http://www.w3.org/2000/svg">
</g>
<g xmlns="http://www.w3.org/2000/svg">
</g>
<g xmlns="http://www.w3.org/2000/svg">
</g>
<g xmlns="http://www.w3.org/2000/svg">
</g>
<g xmlns="http://www.w3.org/2000/svg">
</g>
<g xmlns="http://www.w3.org/2000/svg">
</g>
<g xmlns="http://www.w3.org/2000/svg">
</g>
<g xmlns="http://www.w3.org/2000/svg">
</g>
<g xmlns="http://www.w3.org/2000/svg">
</g>
<g xmlns="http://www.w3.org/2000/svg">
</g>
<g xmlns="http://www.w3.org/2000/svg">
</g>
<g xmlns="http://www.w3.org/2000/svg">
</g>
<g xmlns="http://www.w3.org/2000/svg">
</g>
</g></svg>
